<?xml version="1.0" standalone="no"?>
<!DOCTYPE svg PUBLIC "-//W3C//DTD SVG 20010904//EN"
 "http://www.w3.org/TR/2001/REC-SVG-20010904/DTD/svg10.dtd">
<svg version="1.0" xmlns="http://www.w3.org/2000/svg"
 width="1014.000000pt" height="1014.000000pt" viewBox="0 0 1014.000000 1014.000000"
 preserveAspectRatio="xMidYMid meet">
<metadata>
Created by potrace 1.11, written by Peter Selinger 2001-2013
</metadata>
<g transform="translate(0.000000,1014.000000) scale(0.100000,-0.100000)"
fill="#000000" stroke="none">
<path d="M3325 6255 c-68 -18 -126 -42 -161 -66 -58 -40 -2114 -2097 -2125
-2126 -44 -117 82 -234 190 -178 16 8 489 475 1052 1038 563 563 1039 1031
1056 1041 62 31 142 2 175 -65 16 -32 18 -96 18 -850 0 -870 -1 -850 50 -950
45 -88 171 -185 265 -204 60 -13 157 -13 204 0 115 30 103 19 1125 1041 763
763 989 984 1018 993 49 16 105 1 143 -39 l30 -31 5 -827 c4 -560 9 -837 16
-857 52 -144 171 -252 312 -283 43 -10 146 -8 196 3 101 22 101 22 1161 1082
560 560 1026 1031 1036 1048 36 58 14 146 -45 181 -39 23 -51 26 -103 19 -40
-6 -85 -49 -1060 -1023 -619 -619 -1030 -1023 -1050 -1031 -57 -23 -128 4
-163 62 -19 31 -20 57 -20 827 0 846 0 842 -49 938 -45 87 -154 176 -251 203
-60 17 -164 19 -221 4 -112 -30 -113 -31 -1135 -1052 -695 -695 -990 -983
-1006 -985 -89 -6 -124 9 -158 65 -19 31 -20 57 -20 847 0 869 0 862 -50 960
-45 88 -163 179 -265 205 -30 8 -151 15 -170 10z"/>
</g>
</svg>
