<svg xmlns="http://www.w3.org/2000/svg" width="579" height="68" viewBox="0 0 579 68">
  <title>nickniles</title>
  <path d="M6,60,56.65,9.35a6.94,6.94,0,0,1,11.85,4.9v38.5a6.94,6.94,0,0,0,11.85,4.9L130,8" style="fill: #fff;stroke: #000;stroke-linecap: round;stroke-linejoin: round;stroke-width: 3px"/>
  <path d="M279.5,59.5,329.65,9.35a6.94,6.94,0,0,1,11.85,4.9v37.5a6.94,6.94,0,0,0,11.85,4.9L403,7" style="fill: #fff;stroke: #000;stroke-linecap: round;stroke-linejoin: round;stroke-width: 3px"/>
  <line x1="151.5" y1="8.5" x2="100.5" y2="59.5" style="fill: none;stroke: #000;stroke-linecap: round;stroke-linejoin: round;stroke-width: 3px"/>
  <line x1="221.5" y1="9.5" x2="170.5" y2="60.5" style="fill: none;stroke: #000;stroke-linecap: round;stroke-linejoin: round;stroke-width: 3px"/>
  <line x1="421.5" y1="9.5" x2="370.5" y2="60.5" style="fill: none;stroke: #000;stroke-linecap: round;stroke-linejoin: round;stroke-width: 3px"/>
  <path d="M443.5,8.5,402.85,49.15a6.06,6.06,0,0,0,4.29,10.35H435.5" style="fill: none;stroke: #000;stroke-linecap: round;stroke-linejoin: round;stroke-width: 3px"/>
  <path d="M198.5,9.5h-18a24.13,24.13,0,0,0-17.06,7.07l-35.8,35.8A4.47,4.47,0,0,0,130.79,60H161" style="fill: none;stroke: #000;stroke-linecap: round;stroke-linejoin: round;stroke-width: 3px"/>
  <path d="M512.5,9.5H492.23A18.67,18.67,0,0,0,479,15L444.42,49.58A6.1,6.1,0,0,0,448.73,60H475" style="fill: none;stroke: #000;stroke-linecap: round;stroke-linejoin: round;stroke-width: 3px"/>
  <path d="M246.5,60.5,208.67,31.08a4.4,4.4,0,0,1,1.65-7.75L266.5,9.5" style="fill: none;stroke: #000;stroke-linecap: round;stroke-linejoin: round;stroke-width: 3px"/>
  <line x1="461.5" y1="32.5" x2="491.5" y2="32.5" style="fill: none;stroke: #000;stroke-linecap: round;stroke-linejoin: round;stroke-width: 3px"/>
  <path d="M476,60h36.32a14.91,14.91,0,0,0,10.55-4.37l14.24-14.24a5.08,5.08,0,0,0-3.68-8.67L515.32,33a5.08,5.08,0,0,1-3.68-8.67l10.28-10.28A15.81,15.81,0,0,1,533,9.46l36.27-.21" style="fill: none;stroke: #000;stroke-linecap: round;stroke-linejoin: round;stroke-width: 3px"/>
</svg>
